<?xml version="1.0" encoding="UTF-8"?>
<svg version="1.1" xmlns="http://www.w3.org/2000/svg" width="465" height="119">
<path d="M0 0 C0.62809475 6.48193782 -1.10307774 9.55325549 -4.6875 14.625 C-5.70650879 16.13401302 -6.72334229 17.64449668 -7.73828125 19.15625 C-8.27404785 19.94644531 -8.80981445 20.73664062 -9.36181641 21.55078125 C-12.12633674 25.68396575 -14.75641603 29.89831144 -17.375 34.125 C-18.17526611 35.41531128 -18.17526611 35.41531128 -18.99169922 36.73168945 C-25.29383742 46.98182684 -31.16077917 57.48131455 -37 68 C-36.30003906 67.43539062 -35.60007812 66.87078125 -34.87890625 66.2890625 C-31.92800188 63.94275319 -28.94480648 61.64853891 -25.9375 59.375 C-24.91527344 58.59898438 -23.89304687 57.82296875 -22.83984375 57.0234375 C-17.1938774 53.0005894 -12.9170363 52.09378795 -6 53 C-3.3125 54.5625 -3.3125 54.5625 -2 57 C-2.21564658 63.62466287 -5.08186371 68.65950752 -8.125 74.4375 C-11.65251311 81.30502104 -15.10174639 88.17125811 -18.1875 95.25 C-18.62376709 96.24084595 -18.62376709 96.24084595 -19.06884766 97.25170898 C-20.53194612 100.50787538 -20.53194612 100.50787538 -21 104 C-16.9959953 103.45910814 -14.74053987 102.36004434 -11.625 99.8125 C-10.46097656 98.87083984 -10.46097656 98.87083984 -9.2734375 97.91015625 C-6.68114091 95.73209262 -4.12628712 93.51394262 -1.57421875 91.2890625 C0.48111007 89.6060389 2.67112506 88.27029542 5 87 C4.34 86.34 3.68 85.68 3 85 C2.29774373 80.00254842 2.3544948 75.43133762 4.4375 70.8125 C11.16840897 63.42491699 17.60474627 58.55379429 27 55 C28.134375 54.566875 29.26875 54.13375 30.4375 53.6875 C36.11989259 52.59089792 43.13606457 51.34975915 48.33203125 54.34375 C50 56 50 56 50.5 58.8125 C49.7572678 63.54741775 47.46153865 66.37606817 44.3125 69.875 C40.74754456 71.60930265 36.88419525 71.76484154 33 71 C32.34 70.01 31.68 69.02 31 68 C29.22611914 69.09926403 27.45600316 70.20460502 25.6875 71.3125 C24.70136719 71.92738281 23.71523437 72.54226562 22.69921875 73.17578125 C20.49827965 74.66324661 18.76671012 76.0403386 17 78 C17.639375 77.835 18.27875 77.67 18.9375 77.5 C21.5702802 77.07015833 24.0274896 76.83580679 26.6875 76.75 C27.45449219 76.72421875 28.22148437 76.6984375 29.01171875 76.671875 C29.66785156 76.78015625 30.32398438 76.8884375 31 77 C33 80 33 80 32.9375 82.4375 C31.39239437 86.66078871 28.02043264 88.46893015 24.1328125 90.4921875 C23.14023438 90.94851562 22.14765625 91.40484375 21.125 91.875 C15.97945186 94.3651912 12.12402914 97.06342673 8 101 C8.33 101.99 8.66 102.98 9 104 C13.63161715 106.31580858 19.74053534 105.7060827 24.5625 104.19921875 C30.69867429 101.33763747 35.66655393 97.21932165 40.75 92.79296875 C43 91 43 91 45 91 C45.13535156 90.39414063 45.27070313 89.78828125 45.41015625 89.1640625 C47.25985001 81.96465563 50.49395921 76.84737386 55 71 C55.598125 70.113125 56.19625 69.22625 56.8125 68.3125 C65.41018392 59.22351985 77.55486052 53.04330511 90 52 C94.27806057 51.94179509 97.29088621 52.53228665 100.9375 54.9375 C103.00835733 57.00835733 103.95059614 57.96466688 104.08984375 60.8828125 C103.65175999 67.33050681 101.47388939 71.35917444 97 76 C93.32653229 78.44897847 91.33643601 78.31537716 87 78 C86.34 77.34 85.68 76.68 85 76 C85.27615663 71.12123286 86.40155962 68.06925569 89 64 C76.74945154 69.14783685 66.14646779 76.91901159 60 89 C58.88912844 92.74919151 58.65038113 96.08426863 59 100 C61.06457258 102.70613369 62.25048089 103.85856029 65.62890625 104.49609375 C76.79901224 104.2729891 86.3636986 101.72723574 96 96 C97.64355469 95.11054688 97.64355469 95.11054688 99.3203125 94.203125 C104.43273598 90.47336718 106.84495946 84.6366318 109.62161255 79.11856079 C110.99261296 76.39461536 112.40148819 73.69087741 113.8084259 70.98536682 C114.52222418 69.61203134 115.23412866 68.23770989 115.94413757 66.8624115 C119.01063129 60.93161978 122.24469133 55.10648639 125.5625 49.3125 C129.08571495 43.1554468 132.57010486 36.98259626 135.96484375 30.75390625 C136.64300866 29.51449092 137.32131217 28.27515142 137.99975586 27.03588867 C139.30511415 24.65130368 140.59963737 22.26183061 141.88891602 19.8684082 C142.48244873 18.78519287 143.07598145 17.70197754 143.6875 16.5859375 C144.20699219 15.6273584 144.72648437 14.6687793 145.26171875 13.68115234 C148.03543523 9.40292842 151.18429955 5.85128167 156.0625 4.125 C156.71347656 3.88007812 157.36445313 3.63515625 158.03515625 3.3828125 C160.32726833 2.93623798 161.79942945 3.28444699 164 4 C163.52874323 10.05445135 161.5980913 14.34219909 158.6875 19.625 C158.2430957 20.44983887 157.79869141 21.27467773 157.34082031 22.12451172 C153.1054042 29.93254982 148.68541134 37.63643953 144.25 45.33203125 C140.53051634 51.79602197 136.8890874 58.30302923 133.25 64.8125 C132.31849121 66.47853271 132.31849121 66.47853271 131.36816406 68.17822266 C129.91136245 70.7850658 128.4552534 73.39229235 127 76 C132.07360996 73.27003728 136.39541984 70.26030805 140.75 66.5 C141.31332031 66.02691406 141.87664062 65.55382812 142.45703125 65.06640625 C146.49630058 61.61918112 149.23403733 58.56256384 151.5625 53.8125 C153 51 153 51 155 50 C160.31020813 49.54806739 160.31020813 49.54806739 162.8125 51.1875 C164.41614694 53.63517164 164.86857662 55.04297405 165 58 C162.50790212 69.83746494 151.06294928 78.37602959 141.82421875 85.2578125 C138.93744536 87.03858834 136.25099559 88.06840008 133 89 C133.9039397 90.94347036 134.823675 92.87959907 135.75 94.8125 C136.26046875 95.89144531 136.7709375 96.97039062 137.296875 98.08203125 C139.00829218 101.01420701 139.95542999 102.5269976 143 104 C148.08900765 103.92536122 150.52479543 102.13534482 154.125 98.6875 C154.95257813 97.90761719 155.78015625 97.12773438 156.6328125 96.32421875 C157.41398437 95.55722656 158.19515625 94.79023437 159 94 C159.70382812 93.36191406 160.40765625 92.72382812 161.1328125 92.06640625 C163.33810385 89.62582231 164.45702424 87.26694344 165.75 84.25 C166.39195312 82.77273437 166.39195312 82.77273437 167.046875 81.265625 C167.36140625 80.51796875 167.6759375 79.7703125 168 79 C167.360625 78.4225 166.72125 77.845 166.0625 77.25 C164.00079417 75.00086637 163.1070867 74.02222464 163 71 C167.14111098 64.1078013 175.55105259 56.11004933 183 53 C186.87148232 52.43540883 188.37623141 52.54358396 191.5625 54.875 C193.48671844 59.05808357 192.50103033 60.85276148 191.12475586 65.09765625 C189.03759817 70.483402 186.25779745 75.49634659 183.5 80.5625 C179.68158339 87.60244105 176.26234735 94.29993921 174 102 C185.48193708 92.66885805 194.85411919 83.02709628 203.0625 70.625 C203.44510986 70.05410645 203.82771973 69.48321289 204.22192383 68.89501953 C207.21074681 64.20486655 208.5186722 60.3576009 207.3125 54.875 C207 52 207 52 208.8125 49.6875 C212.36235133 46.94904326 214.51690762 46.64135261 219 47 C222.1359157 48.77984405 222.84102736 49.52308207 224 53 C225.23707433 65.12332843 216.98800974 75.79932449 210 85 C206.5566762 89.21638974 202.80281026 93.10951688 199 97 C198.18789063 97.87398438 197.37578125 98.74796875 196.5390625 99.6484375 C189.40984658 107.14680376 179.50063989 116.63863123 168.90234375 118.3359375 C165.33305035 118.40689761 163.38893543 118.29170158 160.5 116.125 C159 114 159 114 159 112 C158.24976563 112.433125 157.49953125 112.86625 156.7265625 113.3125 C150.13537149 116.89863919 144.56807659 119.67752628 137 118 C128.15787209 114.48561522 122.13055715 106.2611143 118 98 C118 97.34 118 96.68 118 96 C117.34 96 116.68 96 116 96 C115.75507813 96.82757813 115.51015625 97.65515625 115.2578125 98.5078125 C113.80806511 102.53288756 111.9276949 106.13227714 109.875 109.875 C109.50246094 110.56335938 109.12992188 111.25171875 108.74609375 111.9609375 C107.83500474 113.64294798 106.91809685 115.32180436 106 117 C104.56138706 116.91253716 103.12402492 116.80434652 101.6875 116.6875 C100.88699219 116.62949219 100.08648437 116.57148437 99.26171875 116.51171875 C96.60933741 115.91161175 95.63496121 115.14291033 94 113 C94 112.34 94 111.68 94 111 C92.83984375 111.50660156 92.83984375 111.50660156 91.65625 112.0234375 C80.28203028 116.89408109 68.9671075 120.66597404 56.4296875 117.3125 C51.77999234 115.19096608 48.89594497 112.16292089 46 108 C46 107.34 46 106.68 46 106 C45.26136719 106.53109375 44.52273437 107.0621875 43.76171875 107.609375 C33.98959954 114.41384937 25.83545162 118.29393431 13.8125 118.5 C12.68980713 118.52803711 12.68980713 118.52803711 11.54443359 118.55664062 C6.57968761 118.49966274 3.13303519 117.43308757 -1.16918945 114.95507812 C-3.12759509 113.93343752 -4.82099966 113.35617199 -7 113 C-9.20107887 113.9830384 -9.20107887 113.9830384 -11.4375 115.4375 C-17.48480273 118.67231276 -23.26433804 118.86705676 -30 118 C-33.35424148 116.75875746 -33.88597928 116.18872395 -35.8125 113 C-38.94518565 104.44199282 -35.34703613 96.7271941 -31.80688477 88.92016602 C-29.31313191 83.55958924 -26.71726778 78.2508132 -24 73 C-42.61141775 92.22960885 -42.61141775 92.22960885 -59.42578125 112.98828125 C-61.68029203 116.06528456 -62.87266606 116.9648734 -66.625 118 C-70 118 -70 118 -73 116 C-73.1875 113.375 -73.1875 113.375 -73 111 C-74.16015625 111.50660156 -74.16015625 111.50660156 -75.34375 112.0234375 C-86.45296536 116.7806015 -97.8229284 120.90687347 -109.984375 117.0546875 C-114.68924255 114.84145099 -118.24988754 112.54366406 -121 108 C-123.72695301 99.81914098 -122.60599111 90.4421618 -119.328125 82.59375 C-112.72081402 69.69006032 -102.26215947 59.20565385 -88.5 54.125 C-80.14584579 51.73382885 -72.87515657 50.99082938 -65 55 C-62.51250905 58.73123643 -62.23742159 61.67872236 -63 66 C-64.33628867 68.94409416 -66.04290611 71.43592337 -68 74 C-68.598125 74.825 -69.19625 75.65 -69.8125 76.5 C-73.29074281 78.88508078 -75.84314303 78.46932256 -80 78 C-82 75 -82 75 -81.8125 72.625 C-80.92236094 69.74916613 -79.64861989 67.50876939 -78 65 C-89.20997181 68.38414243 -99.7008 76.08697971 -105.34765625 86.48046875 C-107.63313659 91.60149418 -108.69926404 95.4490708 -107 101 C-105.86480226 102.76610391 -105.86480226 102.76610391 -104 104 C-91.01850672 106.10050401 -78.48870973 101.3864153 -68 94 C-66.80310547 93.16529175 -66.80310547 93.16529175 -65.58203125 92.3137207 C-62.53589962 89.58412639 -61.23138 87.1018351 -59.46875 83.41796875 C-59.15605164 82.77574371 -58.84335327 82.13351868 -58.5211792 81.47183228 C-57.85197204 80.09606082 -57.18786298 78.71779976 -56.52844238 77.33731079 C-54.7822903 73.68723117 -52.99284945 70.05855385 -51.203125 66.4296875 C-50.84603455 65.7043129 -50.48894409 64.97893829 -50.12103271 64.23158264 C-45.63778321 55.17383313 -40.63347908 46.4269945 -35.55566406 37.69238281 C-33.94073474 34.8974298 -32.35402776 32.08793871 -30.7734375 29.2734375 C-15.27031 1.71285075 -15.27031 1.71285075 -7.5 -0.8125 C-4.79556799 -1.0153324 -2.61801906 -0.6732049 0 0 Z " fill="#000000" transform="translate(122,1)"/>
<path d="M0 0 C0.99 0.99 0.99 0.99 2 2 C1.625 5 1.625 5 1 8 C1 8.66 1 9.32 1 10 C1.53367187 9.52949219 2.06734375 9.05898438 2.6171875 8.57421875 C8.96149958 3.27265693 14.98285063 -0.1824418 23.4375 0.125 C26.18090165 1.06177129 27.37802125 1.60971553 29 4 C30.17822546 7.38362183 30.06613264 8.81987558 28.8125 12.234375 C19.24657175 30.7889772 19.24657175 30.7889772 13.5390625 32.91796875 C11 33 11 33 8.703125 31.88671875 C7 30 7 30 6.609375 27.51953125 C6.65578125 26.62621094 6.7021875 25.73289062 6.75 24.8125 C6.78609375 23.91144531 6.8221875 23.01039062 6.859375 22.08203125 C6.90578125 21.39496094 6.9521875 20.70789063 7 20 C-5.08698296 30.81979927 -16.00859788 42.17633634 -25.99243164 54.97583008 C-31.20928857 61.65207368 -31.20928857 61.65207368 -34 64 C-37.4375 64.125 -37.4375 64.125 -41 64 C-42.175625 64.495 -42.175625 64.495 -43.375 65 C-48.20692749 66.84073428 -53.1061364 66.78224801 -57.875 64.8125 C-62.50494892 60.86342592 -63.41746415 56.94186569 -64 51 C-64.9590625 52.0209375 -64.9590625 52.0209375 -65.9375 53.0625 C-71.71941627 58.81165753 -78.96697624 65.78148103 -87.48046875 66.08984375 C-91.56621627 65.85447572 -94.4075142 65.33327326 -98 63.3125 C-101.00698495 59.83567365 -101.94504084 56.46008159 -102.1171875 51.88671875 C-101.58176668 44.81398248 -100.55682478 39.1644005 -97 33 C-96.58878906 32.27425781 -96.17757813 31.54851562 -95.75390625 30.80078125 C-88.61153203 19.207069 -77.25962638 8.8102985 -64.171875 4.4296875 C-57.42396609 3.09466955 -51.32211433 3.41417854 -45 6 C-44.38125 5.690625 -43.7625 5.38125 -43.125 5.0625 C-39.92368249 3.46184125 -37.41302573 4.29163617 -34 5 C-33 6 -33 6 -32.5625 8.9375 C-32.6436501 13.41878904 -34.76693322 16.23874649 -37.140625 19.91796875 C-39.44079487 23.73064529 -41.35486612 27.6616445 -43.25 31.6875 C-43.76143555 32.75653564 -43.76143555 32.75653564 -44.28320312 33.84716797 C-47.02591567 39.71564585 -49.40035939 45.39407 -49 52 C-45.11086736 51.4238322 -42.98945016 49.43876197 -40 47 C-39.34 47 -38.68 47 -38 47 C-37.60385498 45.94051147 -37.60385498 45.94051147 -37.19970703 44.85961914 C-35.18903301 40.0669808 -32.48254441 35.66488585 -29.87988281 31.17358398 C-28.89367165 29.46975805 -27.91550433 27.76128428 -26.9375 26.05273438 C-13.36697914 2.54957324 -13.36697914 2.54957324 -7.0625 0.3125 C-4.6395399 -0.05461517 -2.44632392 -0.19313084 0 0 Z M-66 20 C-75.68429826 27.50864769 -83.29754616 36.63573656 -88 48 C-87.65756238 50.17549452 -87.65756238 50.17549452 -87 52 C-80.58841016 47.43308545 -74.7574505 42.3613379 -69 37 C-68.30777344 36.37351562 -67.61554688 35.74703125 -66.90234375 35.1015625 C-60.90555497 29.45051303 -56.50785092 22.84525511 -52 16 C-57.45420081 14.04940882 -61.41614688 17.08533709 -66 20 Z " fill="#000000" transform="translate(435,53)"/>
</svg>
